<svg width="22" height="19" fill="none" xmlns="http://www.w3.org/2000/svg"><path fill-rule="evenodd" clip-rule="evenodd" d="M19.175 2.793a4.258 4.258 0 00-5.965-.005l-2.218 2.238L8.75 2.81C7.1 1.163 4.433 1.17 2.814 2.788l-.006.005A4.095 4.095 0 001.59 5.745c0 1.112.437 2.16 1.224 2.958l8.166 8.074 8.195-8.103c1.65-1.631 1.642-4.273.006-5.875l-.006-.006zM10.98 19L1.684 9.808A5.75 5.75 0 010 5.745C0 4.213.584 2.77 1.684 1.682 3.922-.553 7.586-.561 9.856 1.68a5.9 5.9 0 01.024.024l1.1 1.088 1.1-1.11.013-.013c2.27-2.23 5.942-2.225 8.206.013 2.268 2.22 2.268 5.861 0 8.104L10.98 19z" fill="#000"/></svg>